HIERARCHY
ROOT Hips
{
	OFFSET 0.000000 83.214638 0.000000
	CHANNELS 6 Xposition Yposition Zposition Xrotation Yrotation Zrotation
	JOINT Pelvis
	{
		OFFSET 0.000000 0.000000 0.000000
		CHANNELS 3 Xrotation Yrotation Zrotation
		JOINT LeftUpLeg
		{
			OFFSET 8.479700 -4.795502 -0.379100
			CHANNELS 3 Xrotation Yrotation Zrotation
			JOINT LeftLeg
			{
				OFFSET 0.024144 -32.555107 0.112900
				CHANNELS 3 Xrotation Yrotation Zrotation
				JOINT LeftFoot
				{
					OFFSET -0.024144 -32.638630 -3.012600
					CHANNELS 3 Xrotation Yrotation Zrotation
					JOINT LeftToeBase
					{
						OFFSET 0.970200 -13.225400 11.864200
						CHANNELS 3 Xrotation Yrotation Zrotation
						End Site
						{
							OFFSET 0.000000 12.319262 0.000000
						}
					}
					JOINT LFootTongue
					{
						OFFSET 1.142400 -1.059800 6.665200
						CHANNELS 3 Xrotation Yrotation Zrotation
						End Site
						{
							OFFSET 0.000000 12.319262 0.000000
						}
					}
				}
				JOINT LeftPantLeg
				{
					OFFSET 0.918482 -16.533964 -2.284700
					CHANNELS 3 Xrotation Yrotation Zrotation
					End Site
					{
						OFFSET 0.350399 24.744368 0.000000
					}
				}
			}
		}
		JOINT RightUpLeg
		{
			OFFSET -8.479700 -4.795502 -0.379100
			CHANNELS 3 Xrotation Yrotation Zrotation
			JOINT RightLeg
			{
				OFFSET -0.023144 -32.555092 0.112900
				CHANNELS 3 Xrotation Yrotation Zrotation
				JOINT RightFoot
				{
					OFFSET 0.023144 -32.638641 -3.012700
					CHANNELS 3 Xrotation Yrotation Zrotation
					JOINT RightToeBase
					{
						OFFSET -0.970200 -13.225400 11.864200
						CHANNELS 3 Xrotation Yrotation Zrotation
						End Site
						{
							OFFSET 0.000000 12.319244 0.000000
						}
					}
					JOINT RFootTongue
					{
						OFFSET -1.142200 -1.059800 6.665200
						CHANNELS 3 Xrotation Yrotation Zrotation
						End Site
						{
							OFFSET 0.000000 12.319243 0.000000
						}
					}
				}
				JOINT RightPantLeg
				{
					OFFSET -0.919482 -16.533978 -2.284800
					CHANNELS 3 Xrotation Yrotation Zrotation
					End Site
					{
						OFFSET -0.350400 24.744419 0.000000
					}
				}
			}
		}
	}
	JOINT Spine
	{
		OFFSET 0.000000 7.722000 1.166200
		CHANNELS 3 Xrotation Yrotation Zrotation
		JOINT Spine1
		{
			OFFSET 0.000000 12.024101 0.248800
			CHANNELS 3 Xrotation Yrotation Zrotation
			JOINT Spine2
			{
				OFFSET 0.000000 11.502998 -0.491200
				CHANNELS 3 Xrotation Yrotation Zrotation
				JOINT Neck
				{
					OFFSET 0.000000 18.430702 -3.123100
					CHANNELS 3 Xrotation Yrotation Zrotation
					JOINT Head
					{
						OFFSET 0.000000 9.051102 1.034000
						CHANNELS 3 Xrotation Yrotation Zrotation
						JOINT HairB
						{
							OFFSET 0.208400 24.786102 24.822300
							CHANNELS 3 Xrotation Yrotation Zrotation
							End Site
							{
								OFFSET 0.000000 32.263779 0.000000
							}
						}
						JOINT HairA
						{
							OFFSET -7.081100 24.428299 23.196600
							CHANNELS 3 Xrotation Yrotation Zrotation
							End Site
							{
								OFFSET 0.000000 32.263779 0.000000
							}
						}
						JOINT Hat
						{
							OFFSET 16.728800 15.048294 -15.439601
							CHANNELS 3 Xrotation Yrotation Zrotation
							End Site
							{
								OFFSET 0.000000 32.263779 0.000000
							}
						}
					}
				}
				JOINT LeftShoulder
				{
					OFFSET 6.197800 13.665199 -4.064700
					CHANNELS 3 Xrotation Yrotation Zrotation
					JOINT LeftArm
					{
						OFFSET 7.778100 -0.187103 -1.709300
						CHANNELS 3 Xrotation Yrotation Zrotation
						JOINT LeftForeArm
						{
							OFFSET 22.049376 0.000000 0.000000
							CHANNELS 3 Xrotation Yrotation Zrotation
							JOINT LeftHand
							{
								OFFSET 23.009392 0.000000 0.000000
								CHANNELS 3 Xrotation Yrotation Zrotation
								JOINT LeftHandThumb1
								{
									OFFSET 3.507191 -2.063065 3.133727
									CHANNELS 3 Xrotation Yrotation Zrotation
									JOINT LeftHandThumb2
									{
										OFFSET 3.101337 -1.790558 1.790558
										CHANNELS 3 Xrotation Yrotation Zrotation
										JOINT LeftHandThumb3
										{
											OFFSET 3.058640 -1.765907 1.765906
											CHANNELS 3 Xrotation Yrotation Zrotation
											End Site
											{
												OFFSET -0.415260 3.926476 -0.049563
											}
										}
									}
								}
								JOINT LeftHandIndex1
								{
									OFFSET 11.334419 -0.901459 3.706815
									CHANNELS 3 Xrotation Yrotation Zrotation
									JOINT LeftHandIndex2
									{
										OFFSET 3.283112 0.000000 0.000000
										CHANNELS 3 Xrotation Yrotation Zrotation
										JOINT LeftHandIndex3
										{
											OFFSET 3.323853 0.000000 0.000000
											CHANNELS 3 Xrotation Yrotation Zrotation
											End Site
											{
												OFFSET -1.135597 3.097809 0.402452
											}
										}
									}
								}
								JOINT LeftHandMiddle1
								{
									OFFSET 11.335861 0.000000 0.000000
									CHANNELS 3 Xrotation Yrotation Zrotation
									JOINT LeftHandMiddle2
									{
										OFFSET 3.410492 0.000000 0.000000
										CHANNELS 3 Xrotation Yrotation Zrotation
										JOINT LeftHandMiddle3
										{
											OFFSET 3.312172 0.000000 0.000000
											CHANNELS 3 Xrotation Yrotation Zrotation
											End Site
											{
												OFFSET -1.150200 3.080154 0.400270
											}
										}
									}
								}
								JOINT LeftHandRing1
								{
									OFFSET 11.514786 -0.013176 -3.003090
									CHANNELS 3 Xrotation Yrotation Zrotation
									JOINT LeftHandRing2
									{
										OFFSET 3.053307 0.000000 0.000000
										CHANNELS 3 Xrotation Yrotation Zrotation
										JOINT LeftHandRing3
										{
											OFFSET 3.295807 0.000000 0.000000
											CHANNELS 3 Xrotation Yrotation Zrotation
											End Site
											{
												OFFSET -1.281006 3.013344 0.375733
											}
										}
									}
								}
								JOINT LeftHandPinky1
								{
									OFFSET 10.518692 -0.960396 -5.730441
									CHANNELS 3 Xrotation Yrotation Zrotation
									JOINT LeftHandPinky2
									{
										OFFSET 2.861649 0.000000 0.000000
										CHANNELS 3 Xrotation Yrotation Zrotation
										JOINT LeftHandPinky3
										{
											OFFSET 2.863380 0.000000 0.000000
											CHANNELS 3 Xrotation Yrotation Zrotation
											End Site
											{
												OFFSET -0.843597 2.711159 0.369971
											}
										}
									}
								}
							}
							JOINT LSleeve
							{
								OFFSET 6.676277 -0.344902 -1.011730
								CHANNELS 3 Xrotation Yrotation Zrotation
								End Site
								{
									OFFSET 0.000000 14.885353 0.000000
								}
							}
						}
					}
				}
				JOINT RightShoulder
				{
					OFFSET -6.197800 13.665199 -4.064700
					CHANNELS 3 Xrotation Yrotation Zrotation
					JOINT RightArm
					{
						OFFSET -7.778100 -0.187103 -1.709300
						CHANNELS 3 Xrotation Yrotation Zrotation
						JOINT RightForeArm
						{
							OFFSET -22.049376 0.000000 0.000000
							CHANNELS 3 Xrotation Yrotation Zrotation
							JOINT RightHand
							{
								OFFSET -23.009392 0.000000 0.000000
								CHANNELS 3 Xrotation Yrotation Zrotation
								JOINT RightHandThumb1
								{
									OFFSET -3.507191 -2.063065 3.133727
									CHANNELS 3 Xrotation Yrotation Zrotation
									JOINT RightHandThumb2
									{
										OFFSET -3.101337 -1.790558 1.790558
										CHANNELS 3 Xrotation Yrotation Zrotation
										JOINT RightHandThumb3
										{
											OFFSET -3.058640 -1.765907 1.765906
											CHANNELS 3 Xrotation Yrotation Zrotation
											End Site
											{
												OFFSET 0.415260 3.926476 -0.049563
											}
										}
									}
								}
								JOINT RightHandIndex1
								{
									OFFSET -11.334419 -0.901459 3.706815
									CHANNELS 3 Xrotation Yrotation Zrotation
									JOINT RightHandIndex2
									{
										OFFSET -3.283112 0.000000 0.000000
										CHANNELS 3 Xrotation Yrotation Zrotation
										JOINT RightHandIndex3
										{
											OFFSET -3.323853 0.000000 0.000000
											CHANNELS 3 Xrotation Yrotation Zrotation
											End Site
											{
												OFFSET 1.135597 3.097809 0.402452
											}
										}
									}
								}
								JOINT RightHandMiddle1
								{
									OFFSET -11.335861 0.000000 0.000000
									CHANNELS 3 Xrotation Yrotation Zrotation
									JOINT RightHandMiddle2
									{
										OFFSET -3.410492 0.000000 0.000000
										CHANNELS 3 Xrotation Yrotation Zrotation
										JOINT RightHandMiddle3
										{
											OFFSET -3.312172 0.000000 0.000000
											CHANNELS 3 Xrotation Yrotation Zrotation
											End Site
											{
												OFFSET 1.150200 3.080154 0.400270
											}
										}
									}
								}
								JOINT RightHandRing1
								{
									OFFSET -11.514786 -0.013176 -3.003090
									CHANNELS 3 Xrotation Yrotation Zrotation
									JOINT RightHandRing2
									{
										OFFSET -3.053307 0.000000 0.000000
										CHANNELS 3 Xrotation Yrotation Zrotation
										JOINT RightHandRing3
										{
											OFFSET -3.295807 0.000000 0.000000
											CHANNELS 3 Xrotation Yrotation Zrotation
											End Site
											{
												OFFSET 1.281006 3.013344 0.375733
											}
										}
									}
								}
								JOINT RightHandPinky1
								{
									OFFSET -10.518692 -0.960396 -5.730441
									CHANNELS 3 Xrotation Yrotation Zrotation
									JOINT RightHandPinky2
									{
										OFFSET -2.861649 0.000000 0.000000
										CHANNELS 3 Xrotation Yrotation Zrotation
										JOINT RightHandPinky3
										{
											OFFSET -2.863380 0.000000 0.000000
											CHANNELS 3 Xrotation Yrotation Zrotation
											End Site
											{
												OFFSET 0.843597 2.711159 0.369971
											}
										}
									}
								}
							}
							JOINT RSleeve
							{
								OFFSET -6.676277 -0.344902 -1.011730
								CHANNELS 3 Xrotation Yrotation Zrotation
								End Site
								{
									OFFSET 0.000000 14.885353 0.000000
								}
							}
						}
					}
				}
				JOINT Backpack
				{
					OFFSET 0.000000 -2.471497 36.677502
					CHANNELS 3 Xrotation Yrotation Zrotation
					End Site
					{
						OFFSET 0.000000 20.427315 0.000000
					}
				}
				JOINT Hood
				{
					OFFSET 0.000000 18.754097 -10.431000
					CHANNELS 3 Xrotation Yrotation Zrotation
					JOINT Hood1
					{
						OFFSET 0.000000 -5.011002 -7.685901
						CHANNELS 3 Xrotation Yrotation Zrotation
						End Site
						{
							OFFSET 0.000000 9.175140 0.000000
						}
					}
				}
				JOINT LHoodieString
				{
					OFFSET 5.250500 16.397697 3.089900
					CHANNELS 3 Xrotation Yrotation Zrotation
					JOINT LHoodieString1
					{
						OFFSET 0.257700 -6.364304 3.694600
						CHANNELS 3 Xrotation Yrotation Zrotation
						JOINT LHoodieString2
						{
							OFFSET 0.000000 -9.643799 2.679100
							CHANNELS 3 Xrotation Yrotation Zrotation
							End Site
							{
								OFFSET 0.000000 10.009018 0.000000
							}
						}
					}
				}
				JOINT RHoodieString
				{
					OFFSET -5.250500 16.397697 3.089900
					CHANNELS 3 Xrotation Yrotation Zrotation
					JOINT RHoodieString1
					{
						OFFSET -0.257700 -6.364304 3.694600
						CHANNELS 3 Xrotation Yrotation Zrotation
						JOINT RHoodieString2
						{
							OFFSET 0.000000 -9.643799 2.679100
							CHANNELS 3 Xrotation Yrotation Zrotation
							End Site
							{
								OFFSET 0.000000 10.009018 0.000000
							}
						}
					}
				}
			}
			JOINT LBackpack_Strap
			{
				OFFSET 15.223200 -7.719803 -6.610900
				CHANNELS 3 Xrotation Yrotation Zrotation
				End Site
				{
					OFFSET 0.000000 16.040596 0.000000
				}
			}
			JOINT RBackpack_Strap
			{
				OFFSET -15.223000 -7.719803 -6.610900
				CHANNELS 3 Xrotation Yrotation Zrotation
				End Site
				{
					OFFSET 0.000000 16.040596 0.000000
				}
			}
		}
	}
	JOINT BoyFacialAnim_Joint
	{
		OFFSET 1.000000 -82.208099 -1.550900
		CHANNELS 3 Xrotation Yrotation Zrotation
		End Site
		{
			OFFSET 0.000000 30.012791 0.000000
		}
	}
}
MOTION
Frames: 4
Frame Time: 0.016667
-0.148248 101.534416 -1.070216 4.510391 -38.179347 4.858707 -0.000000 0.000004 0.000000 -78.225788 -17.992158 30.262068 63.984939 0.771876 7.489863 8.047988 -0.027140 0.471362 0.000002 -0.000001 0.000001 0.000002 -0.000001 0.000002 0.000001 0.000000 -0.000002 -117.090479 -42.232033 -2.087862 123.111824 19.677538 -13.514177 12.729179 -0.701167 25.341971 -0.000000 0.000000 -0.000001 -0.000000 0.000000 -0.000001 -0.000001 0.000000 0.000000 30.121749 -4.319838 -10.166124 12.785638 1.087589 -3.033124 12.733212 1.050404 -3.241309 -8.164152 20.999273 -13.038087 -23.845980 13.475286 4.639315 -0.000002 0.000000 0.000000 -0.000002 0.000000 0.000000 -0.000002 0.000000 0.000000 9.829630 -9.813816 -1.458551 -62.537731 12.081214 3.106151 46.615556 -25.819853 31.530090 -9.264697 7.312744 9.666259 40.109917 -15.297078 -0.360450 5.639850 28.097605 11.338694 0.000001 0.000002 0.000001 6.882241 2.840085 -61.140411 8.247944 7.640009 -89.897959 -0.000001 -0.000001 -0.000000 -2.345507 4.688858 -62.655313 8.754128 9.897107 -87.051116 -0.000002 0.000001 -0.000005 -9.042516 10.045692 -60.766315 8.524073 9.508812 -66.893090 -0.000001 0.000002 0.000002 -17.946949 14.754979 -51.485795 8.868435 8.667059 -84.811962 -0.000000 0.000000 0.000001 -0.000004 -0.000000 0.000003 14.990493 20.897819 -4.160221 -28.001561 -11.258122 -3.541426 -45.194552 43.243997 34.197692 -6.582782 -10.157729 -10.545307 -1.525704 -5.490524 13.054248 1.517234 -22.702490 -8.022591 -0.000001 -0.000002 -0.000000 1.268142 4.823973 -8.200810 0.525037 1.162834 0.172179 -0.000000 -0.000002 0.000001 0.868462 -5.217183 -11.333470 1.480002 -3.605088 20.026712 -0.000002 0.000000 0.000002 1.814760 -11.814406 -9.180211 1.792561 -3.024111 21.110262 0.000001 -0.000001 0.000000 2.626242 -21.407338 -3.836542 5.351745 -1.276944 0.651247 0.000003 -0.000002 -0.000002 -0.000001 -0.000002 -0.000004 0.000002 0.000000 -0.000000 0.000002 0.000000 -0.000000 0.000002 0.000000 -0.000000 0.000002 0.000000 -0.000000 0.000002 0.000000 -0.000000 0.000002 0.000001 -0.000002 0.000002 0.000000 -0.000000 0.000002 0.000000 -0.000000 0.000002 0.000001 -0.000002 -0.000002 -0.000001 -0.000000 -0.000002 -0.000001 -0.000000 -0.000000 0.000004 0.000000 
-0.171504 101.507942 -1.026334 4.442822 -37.910463 4.767170 -0.000000 0.000002 -0.000000 -78.428501 -17.832430 29.973428 64.030114 2.244298 8.261577 8.157222 -0.724291 1.775763 -0.000001 0.000001 -0.000001 -0.000001 0.000001 -0.000001 0.000001 -0.000000 0.000001 -117.382620 -42.121742 -2.049880 123.174539 19.632375 -13.513026 13.719547 -0.677626 25.985274 -0.000000 -0.000000 -0.000003 -0.000000 -0.000000 -0.000003 -0.000000 -0.000000 0.000002 30.121496 -4.384660 -10.166726 12.788137 1.087594 -3.033139 12.735772 1.050412 -3.241317 -8.920872 20.968729 -13.048920 -25.340135 14.061498 5.597398 -0.000000 0.000000 -0.000000 -0.000000 0.000000 -0.000000 -0.000000 0.000000 -0.000000 9.984064 -9.728886 -0.757585 -62.955800 11.135331 3.775606 46.589239 -25.768460 31.469601 -9.041976 6.729828 9.359717 40.109920 -15.297079 -0.360451 5.639844 28.097609 11.338693 -0.000001 -0.000001 -0.000001 6.882238 2.840077 -61.140418 8.247944 7.640005 -89.897959 -0.000005 -0.000002 -0.000004 -2.345506 4.688859 -62.655320 8.754126 9.897110 -87.051109 -0.000001 -0.000004 0.000005 -9.042513 10.045690 -60.766322 8.524076 9.508812 -66.893090 -0.000003 -0.000000 -0.000002 -17.946949 14.754978 -51.485805 8.868429 8.667059 -84.811962 -0.000002 -0.000002 0.000001 -0.000001 -0.000001 0.000002 15.302919 20.568551 -4.925036 -28.808310 -11.687212 -3.682307 -45.727884 43.802201 34.969226 -6.236523 -12.921156 -11.831701 -1.525704 -5.490523 13.054249 1.517236 -22.702490 -8.022591 0.000001 -0.000002 -0.000001 1.268142 4.826746 -8.222261 0.524603 1.165251 0.150711 -0.000001 0.000000 0.000004 0.868213 -5.213087 -11.361328 1.477420 -3.598029 19.974666 0.000001 0.000001 -0.000002 1.809790 -11.815184 -9.204570 1.789873 -3.018421 21.069320 -0.000001 -0.000000 0.000000 2.625033 -21.404747 -3.858330 5.348394 -1.270568 0.567665 0.000001 -0.000000 0.000000 -0.000002 -0.000001 -0.000001 -0.000001 0.000002 -0.000001 -0.000001 0.000002 -0.000001 -0.000001 0.000002 -0.000001 -0.000001 0.000002 -0.000001 -0.000001 0.000002 -0.000002 -0.000002 0.000000 -0.000000 -0.000001 0.000002 -0.000001 -0.000001 0.000002 -0.000002 -0.000002 0.000000 -0.000000 -0.000001 0.000000 -0.000000 -0.000001 0.000000 -0.000000 -0.000000 0.000002 -0.000000 
-0.166121 101.502571 -1.018103 4.381595 -37.691146 4.648659 -0.000000 0.000003 -0.000000 -78.459025 -17.884820 29.961796 64.085684 2.162505 8.213306 8.253885 -0.789995 1.957097 0.000002 0.000001 0.000001 0.000002 0.000001 0.000002 -0.000001 -0.000000 0.000001 -117.598495 -42.100275 -2.060825 123.323519 19.509841 -13.493119 13.884414 -0.671884 26.138321 0.000000 -0.000000 -0.000002 0.000000 -0.000000 -0.000002 0.000001 0.000001 -0.000001 30.121742 -4.396429 -10.160593 12.798060 1.087545 -3.033108 12.745770 1.050455 -3.241329 -8.938882 20.977119 -13.011270 -25.364804 13.878973 5.705350 -0.000002 0.000000 -0.000001 -0.000002 0.000000 -0.000001 -0.000002 0.000000 -0.000001 10.133427 -9.721066 -0.028975 -63.361377 10.080278 4.356415 46.550014 -25.690298 31.376721 -8.810566 6.229369 9.041428 40.109924 -15.297079 -0.360450 5.639849 28.097605 11.338693 -0.000000 -0.000001 0.000002 6.882245 2.840085 -61.140418 8.247945 7.639996 -89.897959 0.000002 -0.000002 -0.000002 -2.345506 4.688859 -62.655320 8.754129 9.897107 -87.051116 0.000000 0.000000 0.000000 -9.042519 10.045689 -60.766322 8.524072 9.508809 -66.893090 -0.000001 -0.000002 0.000001 -17.946949 14.754978 -51.485802 8.868427 8.667058 -84.811962 0.000003 0.000002 0.000000 -0.000003 0.000000 0.000000 15.618582 20.231676 -5.707899 -29.640139 -12.140665 -3.854861 -46.313792 44.391800 35.807823 -5.972652 -16.119270 -13.160358 -1.525703 -5.490525 13.054248 1.517231 -22.702490 -8.022591 0.000001 0.000001 -0.000002 1.268110 4.834606 -8.283334 0.527609 1.173656 0.089705 0.000001 -0.000001 -0.000000 0.867549 -5.201537 -11.440762 1.470008 -3.577902 19.826699 -0.000001 0.000001 -0.000002 1.800689 -11.816956 -9.274034 1.782246 -3.002215 20.952826 -0.000001 -0.000000 0.000000 2.621644 -21.397325 -3.920217 5.338786 -1.252253 0.329957 -0.000003 -0.000001 0.000000 -0.000000 0.000001 -0.000000 -0.000002 -0.000001 -0.000000 -0.000002 -0.000001 -0.000000 -0.000002 -0.000001 -0.000000 -0.000002 -0.000001 -0.000000 -0.000002 -0.000001 -0.000000 -0.000003 0.000001 0.000000 -0.000002 -0.000001 -0.000000 -0.000002 -0.000001 -0.000000 -0.000003 0.000001 0.000000 0.000004 -0.000001 -0.000000 0.000004 -0.000001 -0.000000 -0.000000 0.000003 -0.000000 
-0.158184 101.495407 -1.012681 4.321458 -37.473806 4.529195 -0.000000 -0.000001 -0.000000 -78.508045 -17.957969 29.959440 64.145387 2.012161 8.128985 8.451364 -0.795442 2.099436 -0.000001 -0.000001 0.000001 -0.000001 -0.000001 0.000001 0.000001 0.000001 -0.000002 -117.828795 -42.082465 -2.075391 123.460696 19.356030 -13.472542 14.068872 -0.664684 26.309226 0.000000 0.000000 -0.000001 0.000000 0.000000 -0.000001 0.000000 -0.000000 0.000000 30.127083 -4.406484 -10.147631 12.814272 1.087509 -3.033105 12.762086 1.050441 -3.241334 -8.900560 20.965568 -12.984456 -25.327571 13.653083 5.711546 -0.000001 -0.000000 -0.000001 -0.000001 -0.000000 -0.000001 -0.000001 -0.000000 -0.000001 10.281100 -9.782279 0.722439 -63.758621 8.941661 4.845703 46.500263 -25.586442 31.254345 -8.574785 5.831137 8.725819 40.109910 -15.297079 -0.360446 5.639847 28.097609 11.338695 0.000000 -0.000000 0.000001 6.882241 2.840076 -61.140411 8.247945 7.639999 -89.897959 -0.000006 -0.000001 -0.000002 -2.345508 4.688853 -62.655313 8.754127 9.897111 -87.051116 0.000001 0.000001 -0.000005 -9.042517 10.045685 -60.766315 8.524075 9.508813 -66.893083 -0.000000 0.000001 0.000001 -17.946942 14.754974 -51.485795 8.868427 8.667058 -84.811962 -0.000001 -0.000003 0.000003 -0.000000 0.000003 0.000000 15.932606 19.880780 -6.500309 -30.491044 -12.602411 -4.047638 -46.939655 44.997112 36.694904 -5.836492 -19.436200 -14.502628 -1.525705 -5.490524 13.054249 1.517234 -22.702490 -8.022592 0.000000 -0.000001 0.000000 1.272687 4.847379 -8.379334 0.532369 1.186893 0.002693 0.000000 -0.000000 0.000002 0.866589 -5.183220 -11.565170 1.458490 -3.546342 19.594624 0.000000 -0.000000 -0.000000 1.786161 -11.819733 -9.382932 1.770355 -2.976799 20.770153 -0.000000 0.000000 0.000000 2.616303 -21.385717 -4.017262 5.323956 -1.223549 -0.000117 -0.000002 -0.000001 0.000002 -0.000000 -0.000001 0.000002 -0.000002 0.000002 0.000001 -0.000002 0.000002 0.000001 -0.000002 0.000002 0.000001 -0.000002 0.000002 0.000001 -0.000002 0.000002 -0.000001 -0.000002 0.000001 -0.000002 -0.000002 0.000002 0.000001 -0.000002 0.000002 -0.000001 -0.000002 0.000001 -0.000002 -0.000001 0.000000 0.000001 -0.000001 0.000000 0.000001 -0.000000 -0.000001 -0.000000 
